<svg xmlns="http://www.w3.org/2000/svg" xmlns:xlink="http://www.w3.org/1999/xlink" width="500" zoomAndPan="magnify" viewBox="0 0 375 374.999991" height="500" preserveAspectRatio="xMidYMid meet" version="1.2"><defs/><g id="7ef3787a6e"><path style=" stroke:none;fill-rule:nonzero;fill:#1b0101;fill-opacity:1;" d="M 289.921875 165.40625 C 293.320312 173.921875 292.507812 183.449219 288.308594 192.757812 C 278.953125 197.039062 270.851562 194.726562 270.417969 194.609375 C 268.855469 194.144531 267.175781 195.007812 266.714844 196.574219 C 266.21875 198.148438 267.109375 199.8125 268.683594 200.304688 C 269.085938 200.433594 275.640625 202.304688 284.082031 200.410156 C 279.683594 207.132812 273.625 213.5625 266.175781 219.230469 C 255.125 213.640625 240.628906 203.589844 233.277344 187.351562 C 228.992188 177.90625 227.628906 167.261719 229.210938 155.570312 C 229.734375 151.578125 230.585938 147.453125 231.78125 143.226562 C 233.382812 142.96875 234.945312 142.792969 236.523438 142.644531 C 253.515625 140.957031 268.832031 144.234375 279.078125 151.75 C 284.003906 155.328125 287.734375 159.929688 289.921875 165.40625 Z M 241.8125 232.964844 C 238.300781 234.371094 234.738281 235.566406 231.25 236.542969 C 220 231.417969 202.785156 220.980469 194.566406 202.8125 C 188.625 189.699219 188.285156 174.316406 193.507812 156.96875 C 195.859375 155.550781 198.308594 154.21875 200.859375 152.976562 C 203.324219 151.765625 205.878906 150.617188 208.507812 149.570312 C 209.75 149.070312 211.007812 148.605469 212.273438 148.160156 C 211.855469 150.410156 211.523438 152.628906 211.277344 154.8125 C 209.585938 169.210938 211.511719 182.546875 217.015625 194.710938 C 224.441406 211.144531 237.121094 222.429688 248.816406 229.878906 C 246.5625 230.972656 244.21875 232.003906 241.8125 232.964844 Z M 179.160156 235.285156 C 173.285156 232.695312 168.398438 229.132812 164.808594 224.632812 C 161.488281 219.453125 158.925781 212.714844 158.425781 208.652344 C 157.46875 197.425781 162.550781 185.265625 172.132812 174.417969 C 171.257812 187.242188 173.304688 199.183594 178.273438 210.183594 C 184.195312 223.242188 193.394531 233.035156 202.808594 240.238281 C 194.027344 239.996094 185.949219 238.3125 179.160156 235.285156 Z M 123.335938 143.34375 C 108.277344 137.753906 94.753906 128.210938 84.464844 115.457031 C 97.757812 105.949219 113.339844 100.335938 129.867188 99.089844 C 131.265625 98.980469 132.660156 98.9375 134.054688 98.890625 C 134.429688 98.871094 134.789062 98.886719 135.164062 98.867188 C 136.34375 98.84375 137.53125 98.847656 138.730469 98.882812 C 139.089844 98.898438 139.414062 98.898438 139.773438 98.917969 C 140.96875 98.949219 142.15625 99.023438 143.347656 99.125 C 143.707031 99.140625 144.078125 99.183594 144.449219 99.230469 C 145.472656 99.300781 146.488281 99.441406 147.496094 99.550781 C 148.140625 99.648438 148.804688 99.703125 149.453125 99.796875 C 159.429688 101.261719 169.070312 104.371094 177.972656 108.992188 C 188.882812 114.636719 198.667969 122.527344 206.566406 132.261719 C 203.992188 134.089844 201.328125 135.765625 198.617188 137.328125 C 197.230469 138.105469 195.828125 138.859375 194.382812 139.566406 C 193.960938 139.796875 193.503906 140.011719 193.070312 140.214844 C 191.34375 141.03125 189.582031 141.832031 187.78125 142.550781 C 185.957031 143.28125 184.074219 143.9375 182.164062 144.539062 C 181.65625 144.710938 181.117188 144.890625 180.601562 145.035156 C 174.335938 146.929688 167.84375 148.175781 161.144531 148.667969 C 148.128906 149.632812 135.261719 147.753906 123.335938 143.34375 Z M 135.5625 53.375 C 151.890625 53.871094 167.683594 58.820312 181.59375 67.882812 C 202.285156 81.328125 216.285156 102.730469 220.867188 126.484375 C 202.234375 101.351562 173.246094 85.835938 142.324219 84.113281 C 142.191406 84.101562 142.066406 84.117188 141.9375 84.105469 C 138.097656 74.417969 135.871094 64.023438 135.5625 53.375 Z M 300.789062 120.765625 C 300.472656 120.535156 300.113281 120.363281 299.710938 120.234375 C 293.164062 118.132812 279.625 118.347656 269.652344 131.273438 C 270.519531 121.085938 274.925781 115.09375 279.179688 111.695312 C 281.328125 115.550781 286.015625 117.332031 290.21875 115.65625 C 294.78125 113.832031 297.007812 108.648438 295.183594 104.085938 C 293.351562 99.496094 288.179688 97.300781 283.617188 99.121094 C 283.257812 99.261719 282.917969 99.460938 282.582031 99.660156 C 276.105469 102.152344 261.804688 110.171875 260.628906 131.960938 C 253.125 130.558594 245.042969 130.113281 236.617188 130.796875 C 232.894531 100.273438 215.855469 72.390625 189.710938 55.378906 C 171.183594 43.347656 149.8125 37.519531 127.851562 38.5625 C 124.003906 38.71875 120.964844 41.792969 120.765625 45.621094 C 120.082031 59.007812 122.039062 72.175781 126.238281 84.539062 C 105.167969 86.605469 85.535156 94.769531 69.347656 108.347656 C 66.414062 110.800781 65.828125 115.109375 68.019531 118.273438 C 89.058594 148.953125 125.191406 166.296875 162.265625 163.515625 C 163.773438 163.410156 165.257812 163.226562 166.75 163.039062 C 153.195312 176.855469 145.703125 193.285156 146.554688 208.710938 C 146.277344 208.820312 146.007812 208.863281 145.730469 208.976562 C 137.519531 212.257812 133.046875 220.328125 135.707031 226.988281 C 138.367188 233.652344 147.167969 236.425781 155.382812 233.144531 C 155.65625 233.035156 155.882812 232.878906 156.148438 232.738281 C 169.152344 248.035156 193.539062 254.839844 220.210938 251.050781 C 228.761719 249.816406 237.515625 247.503906 246.230469 244.027344 L 246.753906 243.816406 C 251.886719 241.738281 256.738281 239.347656 261.296875 236.726562 C 267.605469 233.085938 273.351562 228.929688 278.417969 224.4375 C 299.429688 205.917969 309.140625 181.421875 300.980469 160.988281 C 296.671875 150.203125 287.992188 142.03125 276.636719 136.882812 C 281.105469 130.964844 286.140625 128.890625 290.117188 128.328125 C 290.679688 131.34375 293.066406 133.789062 296.25 134.214844 C 300.21875 134.75 303.855469 131.980469 304.390625 128.015625 C 304.789062 125.003906 303.277344 122.175781 300.789062 120.765625 "/><path style=" stroke:none;fill-rule:nonzero;fill:#1b0101;fill-opacity:1;" d="M 265.585938 160.996094 C 267.457031 165.6875 265.171875 171.011719 260.480469 172.886719 C 255.785156 174.757812 250.464844 172.472656 248.59375 167.785156 C 246.71875 163.089844 249 157.765625 253.695312 155.894531 C 254.453125 155.59375 255.222656 155.398438 255.988281 155.3125 C 254.046875 156.445312 253.175781 158.859375 254.035156 161.011719 C 254.980469 163.382812 257.667969 164.539062 260.042969 163.589844 C 262.410156 162.644531 263.5625 159.953125 262.617188 157.585938 C 262.511719 157.316406 262.382812 157.0625 262.230469 156.828125 C 263.6875 157.8125 264.882812 159.234375 265.585938 160.996094 "/><g style="fill:#1b0101;fill-opacity:1;"><g transform="translate(36.639307, 325.198075)"><path style="stroke:none" d="M 40.890625 -31.71875 L 28.90625 -31.71875 L 28.90625 0 L 14.625 0 L 14.625 -31.71875 L 2.5625 -31.71875 L 2.5625 -44.0625 L 40.890625 -44.0625 Z M 40.890625 -31.71875 "/></g></g><g style="fill:#1b0101;fill-opacity:1;"><g transform="translate(80.07667, 325.198075)"><path style="stroke:none" d="M 21.234375 0.703125 C 15.128906 0.703125 10.414062 -0.894531 7.09375 -4.09375 C 3.769531 -7.300781 2.109375 -11.8125 2.109375 -17.625 C 2.109375 -23.5 3.769531 -28.019531 7.09375 -31.1875 C 10.414062 -34.363281 15.128906 -35.953125 21.234375 -35.953125 C 27.347656 -35.953125 32.078125 -34.363281 35.421875 -31.1875 C 38.773438 -28.019531 40.453125 -23.5 40.453125 -17.625 C 40.453125 -11.8125 38.773438 -7.300781 35.421875 -4.09375 C 32.078125 -0.894531 27.347656 0.703125 21.234375 0.703125 Z M 21.234375 -10.84375 C 22.878906 -10.84375 24.140625 -11.425781 25.015625 -12.59375 C 25.898438 -13.769531 26.34375 -15.445312 26.34375 -17.625 C 26.34375 -22.207031 24.640625 -24.5 21.234375 -24.5 C 17.890625 -24.5 16.21875 -22.207031 16.21875 -17.625 C 16.21875 -15.445312 16.640625 -13.769531 17.484375 -12.59375 C 18.335938 -11.425781 19.585938 -10.84375 21.234375 -10.84375 Z M 21.234375 -10.84375 "/></g></g><g style="fill:#1b0101;fill-opacity:1;"><g transform="translate(122.544845, 325.198075)"><path style="stroke:none" d="M 20.53125 -44.0625 C 27.164062 -44.0625 32.273438 -42.148438 35.859375 -38.328125 C 39.453125 -34.515625 41.25 -29.082031 41.25 -22.03125 C 41.25 -14.976562 39.453125 -9.539062 35.859375 -5.71875 C 32.273438 -1.90625 27.164062 0 20.53125 0 L 2.90625 0 L 2.90625 -44.0625 Z M 21.421875 -12.34375 C 23.234375 -12.34375 24.640625 -13.191406 25.640625 -14.890625 C 26.640625 -16.597656 27.140625 -18.976562 27.140625 -22.03125 C 27.140625 -25.144531 26.640625 -27.535156 25.640625 -29.203125 C 24.640625 -30.878906 23.234375 -31.71875 21.421875 -31.71875 L 17.1875 -31.71875 L 17.1875 -12.34375 Z M 21.421875 -12.34375 "/></g></g><g style="fill:#1b0101;fill-opacity:1;"><g transform="translate(165.982209, 325.198075)"><path style="stroke:none" d="M 21.234375 0.703125 C 15.128906 0.703125 10.414062 -0.894531 7.09375 -4.09375 C 3.769531 -7.300781 2.109375 -11.8125 2.109375 -17.625 C 2.109375 -23.5 3.769531 -28.019531 7.09375 -31.1875 C 10.414062 -34.363281 15.128906 -35.953125 21.234375 -35.953125 C 27.347656 -35.953125 32.078125 -34.363281 35.421875 -31.1875 C 38.773438 -28.019531 40.453125 -23.5 40.453125 -17.625 C 40.453125 -11.8125 38.773438 -7.300781 35.421875 -4.09375 C 32.078125 -0.894531 27.347656 0.703125 21.234375 0.703125 Z M 21.234375 -10.84375 C 22.878906 -10.84375 24.140625 -11.425781 25.015625 -12.59375 C 25.898438 -13.769531 26.34375 -15.445312 26.34375 -17.625 C 26.34375 -22.207031 24.640625 -24.5 21.234375 -24.5 C 17.890625 -24.5 16.21875 -22.207031 16.21875 -17.625 C 16.21875 -15.445312 16.640625 -13.769531 17.484375 -12.59375 C 18.335938 -11.425781 19.585938 -10.84375 21.234375 -10.84375 Z M 21.234375 -10.84375 "/></g></g><g style="fill:#ffde59;fill-opacity:1;"><g transform="translate(208.459611, 325.198075)"><path style="stroke:none" d="M 34.546875 -22.828125 C 39.828125 -21.117188 42.46875 -17.648438 42.46875 -12.421875 C 42.46875 -8.484375 40.820312 -5.425781 37.53125 -3.25 C 34.25 -1.082031 29.550781 0 23.4375 0 L 2.90625 0 L 2.90625 -44.0625 L 25.828125 -44.0625 C 30.398438 -44.0625 33.921875 -42.988281 36.390625 -40.84375 C 38.859375 -38.695312 40.09375 -35.628906 40.09375 -31.640625 C 40.09375 -27.460938 38.242188 -24.523438 34.546875 -22.828125 Z M 17.015625 -27.40625 L 23.796875 -27.40625 C 25.960938 -27.40625 27.046875 -28.285156 27.046875 -30.046875 C 27.046875 -31.753906 25.960938 -32.753906 23.796875 -33.046875 L 17.015625 -33.046875 Z M 24.671875 -11.015625 C 27.253906 -11.015625 28.546875 -12.039062 28.546875 -14.09375 C 28.546875 -16.207031 27.253906 -17.265625 24.671875 -17.265625 L 17.015625 -17.265625 L 17.015625 -11.015625 Z M 24.671875 -11.015625 "/></g></g><g style="fill:#ffde59;fill-opacity:1;"><g transform="translate(253.394812, 325.198075)"><path style="stroke:none" d="M 40.453125 -17.625 C 40.453125 -16.976562 40.390625 -16.300781 40.265625 -15.59375 C 40.148438 -14.894531 40.035156 -14.222656 39.921875 -13.578125 L 16.828125 -13.578125 C 17.710938 -11.160156 19.242188 -9.953125 21.421875 -9.953125 C 23.117188 -9.953125 24.289062 -10.773438 24.9375 -12.421875 L 39.125 -10.046875 C 37.832031 -6.640625 35.628906 -3.992188 32.515625 -2.109375 C 29.398438 -0.234375 25.640625 0.703125 21.234375 0.703125 C 15.128906 0.703125 10.414062 -0.894531 7.09375 -4.09375 C 3.769531 -7.300781 2.109375 -11.8125 2.109375 -17.625 C 2.109375 -23.5 3.769531 -28.019531 7.09375 -31.1875 C 10.414062 -34.363281 15.128906 -35.953125 21.234375 -35.953125 C 27.347656 -35.953125 32.078125 -34.363281 35.421875 -31.1875 C 38.773438 -28.019531 40.453125 -23.5 40.453125 -17.625 Z M 25.734375 -20.890625 C 24.554688 -23.878906 23.054688 -25.375 21.234375 -25.375 C 18.765625 -25.375 17.179688 -23.878906 16.484375 -20.890625 Z M 25.734375 -20.890625 "/></g></g><g style="fill:#ffde59;fill-opacity:1;"><g transform="translate(295.862987, 325.198075)"><path style="stroke:none" d="M 40.453125 -17.625 C 40.453125 -16.976562 40.390625 -16.300781 40.265625 -15.59375 C 40.148438 -14.894531 40.035156 -14.222656 39.921875 -13.578125 L 16.828125 -13.578125 C 17.710938 -11.160156 19.242188 -9.953125 21.421875 -9.953125 C 23.117188 -9.953125 24.289062 -10.773438 24.9375 -12.421875 L 39.125 -10.046875 C 37.832031 -6.640625 35.628906 -3.992188 32.515625 -2.109375 C 29.398438 -0.234375 25.640625 0.703125 21.234375 0.703125 C 15.128906 0.703125 10.414062 -0.894531 7.09375 -4.09375 C 3.769531 -7.300781 2.109375 -11.8125 2.109375 -17.625 C 2.109375 -23.5 3.769531 -28.019531 7.09375 -31.1875 C 10.414062 -34.363281 15.128906 -35.953125 21.234375 -35.953125 C 27.347656 -35.953125 32.078125 -34.363281 35.421875 -31.1875 C 38.773438 -28.019531 40.453125 -23.5 40.453125 -17.625 Z M 25.734375 -20.890625 C 24.554688 -23.878906 23.054688 -25.375 21.234375 -25.375 C 18.765625 -25.375 17.179688 -23.878906 16.484375 -20.890625 Z M 25.734375 -20.890625 "/></g></g></g></svg>